<mxfile host="app.diagrams.net" modified="2024-07-23T16:33:29.531Z" agent="Mozilla/5.0 (Windows NT 10.0; Win64; x64) AppleWebKit/537.36 (KHTML, like Gecko) Chrome/126.0.0.0 Safari/537.36" etag="xRXgNUSkrr5VNbBVKxKy" version="24.6.4" type="device">
  <diagram name="Page-1" id="ZuWPk5kSw3Y4CAWbnHWu">
    <mxGraphModel dx="1984" dy="646" grid="1" gridSize="10" guides="1" tooltips="1" connect="1" arrows="1" fold="1" page="1" pageScale="1" pageWidth="850" pageHeight="1100" math="0" shadow="0">
      <root>
        <mxCell id="0" />
        <mxCell id="1" parent="0" />
        <mxCell id="lxx-9I41KdP2fdT1MPh1-1" value="" style="rounded=0;whiteSpace=wrap;html=1;" vertex="1" parent="1">
          <mxGeometry x="130" y="80" width="470" height="280" as="geometry" />
        </mxCell>
        <mxCell id="lxx-9I41KdP2fdT1MPh1-2" value="VNet on Azure" style="text;html=1;align=center;verticalAlign=middle;whiteSpace=wrap;rounded=0;" vertex="1" parent="1">
          <mxGeometry x="130" y="50" width="100" height="30" as="geometry" />
        </mxCell>
        <mxCell id="lxx-9I41KdP2fdT1MPh1-4" value="" style="rounded=0;whiteSpace=wrap;html=1;" vertex="1" parent="1">
          <mxGeometry x="190" y="130" width="160" height="150" as="geometry" />
        </mxCell>
        <mxCell id="lxx-9I41KdP2fdT1MPh1-5" value="VM" style="text;html=1;align=center;verticalAlign=middle;whiteSpace=wrap;rounded=0;" vertex="1" parent="1">
          <mxGeometry x="190" y="100" width="60" height="30" as="geometry" />
        </mxCell>
        <mxCell id="lxx-9I41KdP2fdT1MPh1-11" style="edgeStyle=orthogonalEdgeStyle;rounded=0;orthogonalLoop=1;jettySize=auto;html=1;" edge="1" parent="1" source="lxx-9I41KdP2fdT1MPh1-6" target="lxx-9I41KdP2fdT1MPh1-9">
          <mxGeometry relative="1" as="geometry" />
        </mxCell>
        <mxCell id="lxx-9I41KdP2fdT1MPh1-6" value="Docker Container running API" style="rounded=0;whiteSpace=wrap;html=1;" vertex="1" parent="1">
          <mxGeometry x="210" y="170" width="120" height="60" as="geometry" />
        </mxCell>
        <mxCell id="lxx-9I41KdP2fdT1MPh1-7" value="" style="rounded=0;whiteSpace=wrap;html=1;" vertex="1" parent="1">
          <mxGeometry x="-60" y="150" width="120" height="180" as="geometry" />
        </mxCell>
        <mxCell id="lxx-9I41KdP2fdT1MPh1-8" value="SQL Server" style="text;html=1;align=center;verticalAlign=middle;whiteSpace=wrap;rounded=0;" vertex="1" parent="1">
          <mxGeometry x="-60" y="85" width="60" height="30" as="geometry" />
        </mxCell>
        <mxCell id="lxx-9I41KdP2fdT1MPh1-9" value="SQL DB" style="rounded=1;whiteSpace=wrap;html=1;" vertex="1" parent="1">
          <mxGeometry x="-60" y="200" width="120" height="60" as="geometry" />
        </mxCell>
        <mxCell id="lxx-9I41KdP2fdT1MPh1-13" value="" style="rounded=0;whiteSpace=wrap;html=1;" vertex="1" parent="1">
          <mxGeometry x="380" y="130" width="180" height="210" as="geometry" />
        </mxCell>
        <mxCell id="lxx-9I41KdP2fdT1MPh1-14" value="VM" style="text;html=1;align=center;verticalAlign=middle;whiteSpace=wrap;rounded=0;" vertex="1" parent="1">
          <mxGeometry x="440" y="100" width="60" height="30" as="geometry" />
        </mxCell>
        <mxCell id="lxx-9I41KdP2fdT1MPh1-17" style="edgeStyle=orthogonalEdgeStyle;rounded=0;orthogonalLoop=1;jettySize=auto;html=1;entryX=1;entryY=0.5;entryDx=0;entryDy=0;" edge="1" parent="1" source="lxx-9I41KdP2fdT1MPh1-16" target="lxx-9I41KdP2fdT1MPh1-6">
          <mxGeometry relative="1" as="geometry" />
        </mxCell>
        <mxCell id="lxx-9I41KdP2fdT1MPh1-20" style="edgeStyle=orthogonalEdgeStyle;rounded=0;orthogonalLoop=1;jettySize=auto;html=1;entryX=0;entryY=0.5;entryDx=0;entryDy=0;" edge="1" parent="1" source="lxx-9I41KdP2fdT1MPh1-16" target="lxx-9I41KdP2fdT1MPh1-18">
          <mxGeometry relative="1" as="geometry" />
        </mxCell>
        <mxCell id="lxx-9I41KdP2fdT1MPh1-16" value="Docker Container with Python Flask for Rendering and Routing" style="rounded=0;whiteSpace=wrap;html=1;" vertex="1" parent="1">
          <mxGeometry x="410" y="170" width="120" height="60" as="geometry" />
        </mxCell>
        <mxCell id="lxx-9I41KdP2fdT1MPh1-19" style="edgeStyle=orthogonalEdgeStyle;rounded=0;orthogonalLoop=1;jettySize=auto;html=1;" edge="1" parent="1" source="lxx-9I41KdP2fdT1MPh1-18" target="lxx-9I41KdP2fdT1MPh1-16">
          <mxGeometry relative="1" as="geometry" />
        </mxCell>
        <mxCell id="lxx-9I41KdP2fdT1MPh1-18" value="Client" style="rounded=0;whiteSpace=wrap;html=1;" vertex="1" parent="1">
          <mxGeometry x="690" y="170" width="120" height="60" as="geometry" />
        </mxCell>
        <mxCell id="lxx-9I41KdP2fdT1MPh1-21" value="SQL Connection String" style="rounded=0;whiteSpace=wrap;html=1;" vertex="1" parent="1">
          <mxGeometry x="210" y="390" width="120" height="60" as="geometry" />
        </mxCell>
        <mxCell id="lxx-9I41KdP2fdT1MPh1-22" value="Azure Vault" style="text;html=1;align=center;verticalAlign=middle;whiteSpace=wrap;rounded=0;" vertex="1" parent="1">
          <mxGeometry x="230" y="450" width="80" height="30" as="geometry" />
        </mxCell>
        <mxCell id="lxx-9I41KdP2fdT1MPh1-24" value="" style="endArrow=classic;html=1;rounded=0;exitX=0.5;exitY=1;exitDx=0;exitDy=0;entryX=0.5;entryY=0;entryDx=0;entryDy=0;" edge="1" parent="1" source="lxx-9I41KdP2fdT1MPh1-6" target="lxx-9I41KdP2fdT1MPh1-21">
          <mxGeometry width="50" height="50" relative="1" as="geometry">
            <mxPoint x="390" y="340" as="sourcePoint" />
            <mxPoint x="440" y="290" as="targetPoint" />
          </mxGeometry>
        </mxCell>
        <mxCell id="lxx-9I41KdP2fdT1MPh1-25" value="Docker Container with constant DB Monitoring" style="rounded=0;whiteSpace=wrap;html=1;" vertex="1" parent="1">
          <mxGeometry x="410" y="270" width="120" height="60" as="geometry" />
        </mxCell>
        <mxCell id="lxx-9I41KdP2fdT1MPh1-26" style="edgeStyle=orthogonalEdgeStyle;rounded=0;orthogonalLoop=1;jettySize=auto;html=1;entryX=1.022;entryY=0.869;entryDx=0;entryDy=0;entryPerimeter=0;" edge="1" parent="1" source="lxx-9I41KdP2fdT1MPh1-25" target="lxx-9I41KdP2fdT1MPh1-7">
          <mxGeometry relative="1" as="geometry" />
        </mxCell>
      </root>
    </mxGraphModel>
  </diagram>
</mxfile>
